<?xml version="1.0" encoding="UTF-8"?>
<svg id="Layer_1" xmlns="http://www.w3.org/2000/svg" version="1.1" viewBox="0 0 1366 768">
	<!-- Generator: Adobe Illustrator 29.4.0, SVG Export Plug-In . SVG Version: 2.1.0 Build 152) -->
	<defs>
		<style>
			.st0 {
			fill: #66357b;
			}
			
			.st1, .st2 {
			stroke: #662d91;
			stroke-width: 2px;
			}
			
			.st1, .st2, .st3, .st4 {
			stroke-miterlimit: 10;
			}
			
			.st1, .st5 {
			fill: #662d91;
			}
			
			.st6 {
			fill: #bf44db;
			}
			
			.st2 {
			fill: #fff;
			}
			
			.st7 {
			fill: #8459b6;
			}
			
			.st8 {
			fill: #f2f2f2;
			}
			
			.st3 {
			stroke-width: .25px;
			}
			
			.st3, .st4 {
			fill: #af00ff;
			stroke: #af00ff;
			}
			
			.st9 {
			fill: #f0f;
			}
			
			.st4 {
			stroke-width: .5px;
			}
			
			.st10 {
			fill: #915dbe;
			}
			
			.st11 {
			fill: #f9f;
			}
		</style>
	</defs>
	<g>
		<polygon class="st8" points="712.07 256.95 707.13 256.95 707.13 252.18 712.07 252.18 712.07 253.8 712.07 256.95" />
		<g>
			<rect class="st5" x="500.27" y="223.34" width="348.39" height="248.49" />
			<path class="st6" d="M500.27,223.34v248.49h348.39v-248.49h-348.39ZM516.15,238.01h9.9v9.99h-9.9v-9.99ZM526.05,454.25h-9.9v-9.99h9.9v9.99ZM832.8,454.24h-9.9v-9.99h9.9v9.99ZM832.8,432.91h-21.16v21.34h-274.35v-21.34h-21.16v-173.57h21.16v-21.34h274.35v21.34h21.16v173.57ZM832.8,247.98h-9.9v-9.99h9.9v9.99Z" />
			<rect class="st7" x="573.32" y="275.44" width="10.85" height="148.36" />
			<rect class="st10" x="617" y="275.44" width="10.76" height="148.36" />
			<path class="st10" d="M822.9,432.91v-162.46h-11.26v-11.13h-.03v-11.34h-266.18v19.52h-2.18s-.03,0-.03,0c0,0,0,0,0,0s0,0,0,0h-.02s-18.99,0-18.99,0v165.42h13.07v11.34h274.39s0,0,0,0h-.1v-11.34h11.33ZM584.16,423.8h-21.69v-156.3h21.69v156.3ZM627.76,423.8h-21.53v-156.3h21.53v156.3ZM742.15,423.8h-21.69v-156.3h21.69v156.3ZM788.97,423.8h-21.69v-156.3h21.69v156.3Z" />
			<rect class="st7" x="731.31" y="275.44" width="10.85" height="148.36" />
			<rect class="st7" x="778.05" y="275.44" width="10.85" height="148.36" />
		</g>
		<polygon class="st2" points="686.45 308.55 712.17 308.55 712.17 276.7 634.95 276.7 634.95 349.49 661.35 349.49 661.35 390.44 634.95 390.44 634.95 414.6 712.17 414.6 712.17 349.49 686.45 349.49 686.45 308.55" />
		<rect class="st11" x="500.49" y="223.34" width="9.18" height="23.68" />
		<rect class="st11" x="505.08" y="261.5" width="4.59" height="84.15" />
		<rect class="st11" x="515.86" y="223.34" width="18.33" height="11.84" />
		<line class="st1" x1="500.27" y1="471.83" x2="848.67" y2="471.83" />
		<rect class="st11" x="542.23" y="223.34" width="132.33" height="5.92" />
		<rect class="st11" x="615.15" y="229.26" width="92.58" height="5.92" />
		<rect class="st5" x="745.66" y="461.62" width="92.15" height="4.32" />
		<rect class="st5" x="540" y="461.62" width="82.38" height="10.21" />
		<path class="st0" d="M516.15,247.99" />
		<rect class="st11" x="829.09" y="239.55" width="2.38" height="2.38" />
		<rect class="st11" x="518.11" y="241.33" width="2.99" height="2.99" />
		<rect class="st11" x="518.19" y="447.13" width="3.06" height="3.06" />
		<rect class="st11" x="825.74" y="449.25" width="3.6" height="3.6" />
		<rect class="st11" x="829.34" y="446.53" width="1.53" height="1.53" />
		<rect class="st11" x="828.66" y="243.3" width=".94" height=".94" />
		<animateTransform attributeName="transform" type="translate" values="0 0; 2 2; -2 -1; 1 -2; -1 1; 0 0" dur="0.2s" repeatCount="indefinite" />
	</g>
	<g>
		<path class="st9" d="M821.43,411.13l20.99-36.36-36.36-20.99-20.99,36.36,36.36,20.99ZM808.54,363.01l24.65,14.23-14.23,24.65-24.65-14.23,14.23-24.65Z" />
		<path class="st9" d="M771.21,382.13l20.99-36.36-36.36-20.99-20.99,36.36,36.36,20.99ZM758.31,334.01l24.65,14.23-14.23,24.65-24.65-14.23,14.23-24.65Z" />
		<path class="st9" d="M722.06,353.75l20.99-36.36-36.36-20.99-20.99,36.36,36.36,20.99ZM709.16,305.63l24.65,14.23-14.23,24.65-24.65-14.23,14.23-24.65Z" />
		<path class="st9" d="M671.83,324.75l20.99-36.36-36.36-20.99-20.99,36.36,36.36,20.99ZM658.94,276.63l24.65,14.23-14.23,24.65-24.65-14.23,14.23-24.65Z" />
		<path class="st9" d="M622.35,296.18l20.99-36.36-36.36-20.99-20.99,36.36,36.36,20.99ZM609.46,248.06l24.65,14.23-14.23,24.65-24.65-14.23,14.23-24.65Z" />
		<path class="st9" d="M572.12,267.19l20.99-36.36-36.36-20.99-20.99,36.36,36.36,20.99ZM559.23,219.07l24.65,14.23-14.23,24.65-24.65-14.23,14.23-24.65Z" />
		<rect class="st9" x="770.99" y="362.75" width="35.06" height="10.27" transform="translate(1287.45 1080.73) rotate(-150)" />
		<rect class="st9" x="721.42" y="334.13" width="35.06" height="10.27" transform="translate(1209.27 1002.55) rotate(-150)" />
		<rect class="st9" x="671.57" y="305.35" width="35.06" height="10.27" transform="translate(1130.63 923.91) rotate(-150)" />
		<rect class="st9" x="621.88" y="276.66" width="35.06" height="10.27" transform="translate(1052.25 845.53) rotate(-150)" />
		<rect class="st9" x="571.97" y="247.85" width="35.06" height="10.27" transform="translate(973.54 766.82) rotate(-150)" />
		<rect class="st9" x="821.48" y="391.9" width="35.06" height="10.27" transform="translate(1367.09 1160.37) rotate(-150)" />
		<rect class="st9" x="521.82" y="218.89" width="35.06" height="10.27" transform="translate(894.43 687.71) rotate(-150)" />
		<line class="st4" x1="834.8" y1="387.97" x2="828.95" y2="384.59" />
		<line class="st4" x1="804.3" y1="370.36" x2="798.44" y2="366.98" />
		<line class="st4" x1="784.58" y1="358.97" x2="778.72" y2="355.59" />
		<line class="st4" x1="754.07" y1="341.36" x2="748.22" y2="337.98" />
		<line class="st4" x1="735.43" y1="330.59" x2="729.57" y2="327.21" />
		<line class="st4" x1="704.92" y1="312.98" x2="699.06" y2="309.6" />
		<line class="st4" x1="685.2" y1="301.6" x2="679.34" y2="298.22" />
		<line class="st4" x1="654.69" y1="283.98" x2="648.84" y2="280.6" />
		<line class="st4" x1="635.72" y1="273.03" x2="629.86" y2="269.65" />
		<line class="st4" x1="605.21" y1="255.41" x2="599.36" y2="252.03" />
		<line class="st4" x1="585.49" y1="244.03" x2="579.64" y2="240.65" />
		<line class="st4" x1="554.99" y1="226.42" x2="549.13" y2="223.04" />
		<line class="st3" x1="829.22" y1="397.64" x2="823.36" y2="394.26" />
		<line class="st3" x1="798.71" y1="380.03" x2="792.86" y2="376.65" />
		<line class="st3" x1="778.99" y1="368.65" x2="773.14" y2="365.27" />
		<line class="st3" x1="748.49" y1="351.03" x2="742.63" y2="347.65" />
		<line class="st3" x1="729.84" y1="340.27" x2="723.99" y2="336.89" />
		<line class="st3" x1="699.33" y1="322.66" x2="693.48" y2="319.28" />
		<line class="st3" x1="679.62" y1="311.27" x2="673.76" y2="307.89" />
		<line class="st3" x1="649.11" y1="293.66" x2="643.25" y2="290.28" />
		<line class="st3" x1="630.13" y1="282.7" x2="624.28" y2="279.32" />
		<line class="st3" x1="599.63" y1="265.09" x2="593.77" y2="261.71" />
		<line class="st3" x1="579.91" y1="253.7" x2="574.05" y2="250.32" />
		<line class="st3" x1="549.4" y1="236.09" x2="543.54" y2="232.71" />
		<rect class="st11" x="811.15" y="404.25" width="12.46" height="2.91" transform="translate(1322.39 1165.73) rotate(-150)" />
		<rect class="st11" x="711.77" y="346.87" width="12.46" height="2.91" transform="translate(1165.64 1008.98) rotate(-150)" />
		<rect class="st11" x="612.06" y="289.3" width="12.46" height="2.91" transform="translate(1008.37 851.71) rotate(-150)" />
		<rect class="st11" x="823.63" y="391.58" width="16.41" height="2.91" transform="translate(1355.72 1149.32) rotate(-150)" />
		<rect class="st11" x="723.63" y="333.71" width="16.41" height="2.91" transform="translate(1198.05 991.33) rotate(-150)" />
		<rect class="st11" x="624.64" y="276.55" width="16.41" height="2.91" transform="translate(1041.9 835.18) rotate(-150)" />
		<rect class="st11" x="524.04" y="218.47" width="16.41" height="2.91" transform="translate(883.22 676.5) rotate(-150)" />
		<rect class="st11" x="843.82" y="399.71" width="4.21" height="2.91" transform="translate(1377.94 1171.54) rotate(-150)" />
		<rect class="st11" x="743.24" y="341.5" width="4.21" height="2.91" transform="translate(1219.35 1012.63) rotate(-150)" />
		<rect class="st11" x="643.94" y="283.99" width="4.21" height="2.91" transform="translate(1062.82 855.66) rotate(-150)" />
		<rect class="st11" x="544.15" y="226.56" width="4.21" height="2.91" transform="translate(905.32 698.6) rotate(-150)" />
		<rect class="st11" x="812.45" y="362.31" width="16.09" height="2.66" transform="translate(1349.25 1088.81) rotate(-150)" />
		<rect class="st11" x="770.67" y="338.18" width="16.09" height="2.66" transform="translate(1283.34 1022.9) rotate(-150)" />
		<rect class="st11" x="713.03" y="304.91" width="16.09" height="2.66" transform="translate(1192.42 931.98) rotate(-150)" />
		<rect class="st11" x="671.29" y="280.81" width="16.09" height="2.66" transform="translate(1126.59 866.15) rotate(-150)" />
		<rect class="st11" x="613.44" y="247.41" width="16.09" height="2.66" transform="translate(1035.33 774.89) rotate(-150)" />
		<rect class="st11" x="571.58" y="223.24" width="16.09" height="2.66" transform="translate(969.31 708.87) rotate(-150)" />
		<rect class="st11" x="784.74" y="366.76" width="19.61" height="1.6" transform="translate(1298.87 1083.14) rotate(-150)" />
		<rect class="st11" x="685.52" y="309.19" width="19.61" height="1.6" transform="translate(1142.5 926.12) rotate(-150)" />
		<rect class="st11" x="585.84" y="251.58" width="19.61" height="1.6" transform="translate(985.29 768.77) rotate(-150)" />
		<rect class="st11" x="735.46" y="358.83" width="3.38" height="3.38" transform="translate(1195.29 1041.31) rotate(-150)" />
		<rect class="st11" x="636.09" y="301.45" width="3.38" height="3.38" transform="translate(1038.54 884.56) rotate(-150)" />
		<rect class="st11" x="536.38" y="243.88" width="3.38" height="3.38" transform="translate(881.26 727.28) rotate(-150)" />
		<line class="st3" x1="842.43" y1="374.76" x2="806.07" y2="353.77" />
		<line class="st3" x1="792.2" y1="345.77" x2="755.84" y2="324.77" />
		<line class="st3" x1="743.05" y1="317.39" x2="706.69" y2="296.4" />
		<line class="st3" x1="692.83" y1="288.39" x2="656.46" y2="267.4" />
		<line class="st3" x1="643.34" y1="259.82" x2="606.98" y2="238.83" />
		<line class="st3" x1="593.12" y1="230.82" x2="556.75" y2="209.83" />
		<line class="st3" x1="833.19" y1="377.24" x2="808.54" y2="363.01" />
		<line class="st3" x1="782.97" y1="348.24" x2="758.31" y2="334.01" />
		<line class="st3" x1="733.82" y1="319.86" x2="709.16" y2="305.63" />
		<line class="st3" x1="683.59" y1="290.87" x2="658.94" y2="276.63" />
		<line class="st3" x1="634.11" y1="262.3" x2="609.46" y2="248.06" />
		<line class="st3" x1="583.88" y1="233.3" x2="559.23" y2="219.07" />
		<animateTransform attributeName="transform" from="0 0" to="100 0" begin="0s" dur="2s" repeatCount="indefinite" />
		<animate attributeName="opacity" from="1" to="0" begin="2s" dur="2s" repeatCount="indefinite" />
	</g>
	<g>
		<path class="st9" d="M791.19,484.65l20.99-36.36-36.36-20.99-20.99,36.36,36.36,20.99ZM778.3,436.53l24.65,14.23-14.23,24.65-24.65-14.23,14.23-24.65Z" />
		<path class="st9" d="M740.97,455.65l20.99-36.36-36.36-20.99-20.99,36.36,36.36,20.99ZM728.07,407.53l24.65,14.23-14.23,24.65-24.65-14.23,14.23-24.65Z" />
		<path class="st9" d="M691.82,427.27l20.99-36.36-36.36-20.99-20.99,36.36,36.36,20.99ZM678.92,379.15l24.65,14.23-14.23,24.65-24.65-14.23,14.23-24.65Z" />
		<path class="st9" d="M641.59,398.27l20.99-36.36-36.36-20.99-20.99,36.36,36.36,20.99ZM628.7,350.16l24.65,14.23-14.23,24.65-24.65-14.23,14.23-24.65Z" />
		<path class="st9" d="M592.11,369.71l20.99-36.36-36.36-20.99-20.99,36.36,36.36,20.99ZM579.21,321.59l24.65,14.23-14.23,24.65-24.65-14.23,14.23-24.65Z" />
		<path class="st9" d="M541.88,340.71l20.99-36.36-36.36-20.99-20.99,36.36,36.36,20.99ZM528.99,292.59l24.65,14.23-14.23,24.65-24.65-14.23,14.23-24.65Z" />
		<rect class="st9" x="740.75" y="436.27" width="35.06" height="10.27" transform="translate(1194.26 1202.81) rotate(-150)" />
		<rect class="st9" x="691.18" y="407.65" width="35.06" height="10.27" transform="translate(1116.08 1124.62) rotate(-150)" />
		<rect class="st9" x="641.33" y="378.87" width="35.06" height="10.27" transform="translate(1037.44 1045.98) rotate(-150)" />
		<rect class="st9" x="591.64" y="350.18" width="35.06" height="10.27" transform="translate(959.06 967.6) rotate(-150)" />
		<rect class="st9" x="541.73" y="321.37" width="35.06" height="10.27" transform="translate(880.35 888.89) rotate(-150)" />
		<rect class="st9" x="791.24" y="465.42" width="35.06" height="10.27" transform="translate(1273.9 1282.44) rotate(-150)" />
		<rect class="st9" x="491.58" y="292.41" width="35.06" height="10.27" transform="translate(801.24 809.78) rotate(-150)" />
		<line class="st4" x1="804.56" y1="461.49" x2="798.71" y2="458.11" />
		<line class="st4" x1="774.06" y1="443.88" x2="768.2" y2="440.5" />
		<line class="st4" x1="754.34" y1="432.49" x2="748.48" y2="429.11" />
		<line class="st4" x1="723.83" y1="414.88" x2="717.97" y2="411.5" />
		<line class="st4" x1="705.19" y1="404.12" x2="699.33" y2="400.74" />
		<line class="st4" x1="674.68" y1="386.5" x2="668.82" y2="383.12" />
		<line class="st4" x1="654.96" y1="375.12" x2="649.1" y2="371.74" />
		<line class="st4" x1="624.45" y1="357.51" x2="618.6" y2="354.12" />
		<line class="st4" x1="605.48" y1="346.55" x2="599.62" y2="343.17" />
		<line class="st4" x1="574.97" y1="328.94" x2="569.12" y2="325.56" />
		<line class="st4" x1="555.25" y1="317.55" x2="549.4" y2="314.17" />
		<line class="st4" x1="524.74" y1="299.94" x2="518.89" y2="296.56" />
		<line class="st3" x1="798.98" y1="471.17" x2="793.12" y2="467.79" />
		<line class="st3" x1="768.47" y1="453.55" x2="762.62" y2="450.17" />
		<line class="st3" x1="748.75" y1="442.17" x2="742.9" y2="438.79" />
		<line class="st3" x1="718.24" y1="424.56" x2="712.39" y2="421.17" />
		<line class="st3" x1="699.6" y1="413.79" x2="693.75" y2="410.41" />
		<line class="st3" x1="669.09" y1="396.18" x2="663.24" y2="392.8" />
		<line class="st3" x1="649.37" y1="384.79" x2="643.52" y2="381.41" />
		<line class="st3" x1="618.87" y1="367.18" x2="613.01" y2="363.8" />
		<line class="st3" x1="599.89" y1="356.22" x2="594.04" y2="352.84" />
		<line class="st3" x1="569.39" y1="338.61" x2="563.53" y2="335.23" />
		<line class="st3" x1="549.67" y1="327.23" x2="543.81" y2="323.85" />
		<line class="st3" x1="519.16" y1="309.61" x2="513.3" y2="306.23" />
		<rect class="st11" x="780.91" y="477.77" width="12.46" height="2.91" transform="translate(1229.2 1287.81) rotate(-150)" />
		<rect class="st11" x="681.53" y="420.39" width="12.46" height="2.91" transform="translate(1072.45 1131.05) rotate(-150)" />
		<rect class="st11" x="581.82" y="362.83" width="12.46" height="2.91" transform="translate(915.17 973.78) rotate(-150)" />
		<rect class="st11" x="793.39" y="465.1" width="16.41" height="2.91" transform="translate(1262.53 1271.39) rotate(-150)" />
		<rect class="st11" x="693.39" y="407.23" width="16.41" height="2.91" transform="translate(1104.86 1113.41) rotate(-150)" />
		<rect class="st11" x="594.4" y="350.07" width="16.41" height="2.91" transform="translate(948.71 957.26) rotate(-150)" />
		<rect class="st11" x="493.79" y="291.99" width="16.41" height="2.91" transform="translate(790.03 798.57) rotate(-150)" />
		<rect class="st11" x="813.58" y="473.23" width="4.21" height="2.91" transform="translate(1284.75 1293.62) rotate(-150)" />
		<rect class="st11" x="713" y="415.02" width="4.21" height="2.91" transform="translate(1126.16 1134.7) rotate(-150)" />
		<rect class="st11" x="613.7" y="357.51" width="4.21" height="2.91" transform="translate(969.63 977.73) rotate(-150)" />
		<rect class="st11" x="513.91" y="300.08" width="4.21" height="2.91" transform="translate(812.13 820.68) rotate(-150)" />
		<rect class="st11" x="782.21" y="435.83" width="16.09" height="2.66" transform="translate(1256.06 1210.88) rotate(-150)" />
		<rect class="st11" x="740.43" y="411.71" width="16.09" height="2.66" transform="translate(1190.15 1144.98) rotate(-150)" />
		<rect class="st11" x="682.79" y="378.43" width="16.09" height="2.66" transform="translate(1099.23 1054.05) rotate(-150)" />
		<rect class="st11" x="641.05" y="354.33" width="16.09" height="2.66" transform="translate(1033.4 988.22) rotate(-150)" />
		<rect class="st11" x="583.2" y="320.93" width="16.09" height="2.66" transform="translate(942.14 896.96) rotate(-150)" />
		<rect class="st11" x="541.34" y="296.76" width="16.09" height="2.66" transform="translate(876.12 830.95) rotate(-150)" />
		<rect class="st11" x="754.5" y="440.28" width="19.61" height="1.6" transform="translate(1205.68 1205.22) rotate(-150)" />
		<rect class="st11" x="655.28" y="382.72" width="19.61" height="1.6" transform="translate(1049.3 1048.19) rotate(-150)" />
		<rect class="st11" x="555.6" y="325.1" width="19.61" height="1.6" transform="translate(892.1 890.84) rotate(-150)" />
		<rect class="st11" x="705.22" y="432.35" width="3.38" height="3.38" transform="translate(1102.1 1163.38) rotate(-150)" />
		<rect class="st11" x="605.85" y="374.97" width="3.38" height="3.38" transform="translate(945.35 1006.63) rotate(-150)" />
		<rect class="st11" x="506.14" y="317.4" width="3.38" height="3.38" transform="translate(788.07 849.35) rotate(-150)" />
		<line class="st3" x1="812.19" y1="448.29" x2="775.83" y2="427.29" />
		<line class="st3" x1="761.96" y1="419.29" x2="725.6" y2="398.29" />
		<line class="st3" x1="712.81" y1="390.91" x2="676.45" y2="369.92" />
		<line class="st3" x1="662.58" y1="361.91" x2="626.22" y2="340.92" />
		<line class="st3" x1="613.1" y1="333.34" x2="576.74" y2="312.35" />
		<line class="st3" x1="562.88" y1="304.35" x2="526.51" y2="283.35" />
		<line class="st3" x1="802.95" y1="450.76" x2="778.3" y2="436.53" />
		<line class="st3" x1="752.72" y1="421.76" x2="728.07" y2="407.53" />
		<line class="st3" x1="703.57" y1="393.39" x2="678.92" y2="379.15" />
		<line class="st3" x1="653.35" y1="364.39" x2="628.7" y2="350.16" />
		<line class="st3" x1="603.87" y1="335.82" x2="579.21" y2="321.59" />
		<line class="st3" x1="553.64" y1="306.82" x2="528.99" y2="292.59" />
		<animateTransform attributeName="transform" type="translate" from="0 0" to="-100 0" begin="0s" dur="2s" repeatCount="indefinite" />
		<animate attributeName="opacity" from="1" to="0" begin="2s" dur="2s" repeatCount="indefinite" />
	</g>
</svg>
