<?xml version="1.0" encoding="UTF-8"?>
<svg id="Layer_1" xmlns="http://www.w3.org/2000/svg" version="1.1" viewBox="0 0 85 35">
  <!-- Generator: Adobe Illustrator 29.4.0, SVG Export Plug-In . SVG Version: 2.1.0 Build 152)  -->
  <defs>
    <style>
      .st0 {
        fill: #a044db;
      }

      .st0, .st1 {
        stroke: #662d91;
      }

      .st0, .st1, .st2 {
        stroke-miterlimit: 10;
        stroke-width: .25px;
      }

      .st1 {
        fill: #bf44db;
      }

      .st2 {
        fill: #fff;
        stroke: #93278f;
      }
    </style>
  </defs>
  <g>
    <polygon class="st0" points="0 17.15 0 28.55 .02 28.55 .02 28.55 .03 28.55 .04 28.55 .04 28.55 2.17 28.55 2.17 30.68 4.37 30.68 4.37 32.87 6.5 32.87 6.5 34.99 6.5 34.99 6.5 34.99 6.5 34.99 6.5 34.99 6.5 35 78.51 35 78.51 32.88 80.63 32.88 80.63 30.63 82.91 30.63 82.91 28.5 85 28.5 85 17.15 0 17.15"/>
    <path class="st1" d="M82.87,6.5v-2.13h-2.24v-2.24h-2.13V0H6.5s0,.04,0,.06h0s0,.02,0,.03h0s0,.02,0,.02v2.08h-2.13v2.24h-2.24v2.13H0v10.6h85V6.5h-2.13Z"/>
  </g>
  <path class="st2" d="M17.67,8.14v-1.85h-9.2v21.7h1.87v-10.85h7.32v10.85h1.87v-10.85h-1.86v-1.86h1.86v-7.14h-1.86ZM17.66,15.29h-7.32v-7.14h7.32v7.14Z"/>
  <polygon class="st2" points="33.81 8.14 33.81 6.3 22.74 6.3 22.74 28 33.81 28 33.81 25.78 24.49 25.78 24.49 18 33.81 18 33.81 15.93 24.49 15.93 24.49 8.14 33.81 8.14"/>
  <polygon class="st2" points="37.47 6.3 37.47 8.14 41.88 8.14 41.88 28 44.12 28 44.12 8.14 48.53 8.14 48.53 6.3 37.47 6.3"/>
  <path class="st2" d="M61.35,8.14v-1.85h-9.2v21.7h1.87v-10.85h7.32v10.85h1.87v-10.85h-1.86v-1.86h1.86v-7.14h-1.86ZM61.34,15.29h-7.32v-7.14h7.32v7.14Z"/>
  <polygon class="st2" points="77.21 10.99 77.21 10.99 77.21 6.3 75.09 6.3 75.09 9.4 72.51 9.4 72.51 11.12 70.79 11.12 70.79 9.4 68.28 9.4 68.28 6.3 66.15 6.3 66.15 10.99 67.87 10.99 67.87 12.71 70.56 12.71 70.56 28 72.8 28 72.8 12.71 75.49 12.71 75.49 10.99 77.21 10.99 77.21 10.99"/>
</svg>