<svg id="Layer_1" xmlns="http://www.w3.org/2000/svg" version="1.1" preserveAspectRatio="none" viewBox="492.47 223.34 381.07 321.44">
	<!-- Generator: Adobe Illustrator 29.4.0, SVG Export Plug-In . SVG Version: 2.1.0 Build 152) -->
	<defs>
		<style>
			.st0 {         fill: #66357b;       }        .st1, .st2 {         stroke: #662d91;         stroke-width: 2px;       }        .st1, .st2, .st3, .st4 {         stroke-miterlimit: 10;       }        .st1, .st5 {         fill: #662d91;       }        .st6 {         fill: #bf44db;       }        .st2 {         fill: #fff;       }        .st7 {         fill: #8459b6;       }        .st8 {         fill: #f2f2f2;       }        .st3 {         stroke-width: .25px;       }        .st3, .st4 {         fill: #af00ff;         stroke: #af00ff;       }        .st9 {         fill: #f0f;       }        .st4 {         stroke-width: .5px;       }        .st10 {         fill: #915dbe;       }        .st11 {         fill: #f9f;       }
		</style>
	</defs>
	<g>
		<polygon class="st8" points="720.61 256.95 715.66 256.95 715.66 252.18 720.61 252.18 720.61 253.8 720.61 256.95">
		</polygon>
		<g>
			<path class="st9" d="M518.16,502.67v41.99h41.99v-41.99h-41.99ZM553.39,537.9h-28.46v-28.46h28.46v28.46Z">
			</path>
			<path class="st9" d="M576.16,502.67v41.99h41.99v-41.99h-41.99ZM611.39,537.9h-28.46v-28.46h28.46v28.46Z">
			</path>
			<path class="st9" d="M632.91,502.67v41.99h41.99v-41.99h-41.99ZM668.14,537.9h-28.46v-28.46h28.46v28.46Z">
			</path>
			<path class="st9" d="M690.91,502.67v41.99h41.99v-41.99h-41.99ZM726.14,537.9h-28.46v-28.46h28.46v28.46Z">
			</path>
			<path class="st9" d="M748.05,502.67v41.99h41.99v-41.99h-41.99ZM783.27,537.9h-28.46v-28.46h28.46v28.46Z">
			</path>
			<path class="st9" d="M806.04,502.67v41.99h41.99v-41.99h-41.99ZM841.27,537.9h-28.46v-28.46h28.46v28.46Z">
			</path>
			<rect class="st9" x="550.76" y="518.53" width="35.06" height="10.27">
			</rect>
			<rect class="st9" x="608" y="518.53" width="35.06" height="10.27">
			</rect>
			<rect class="st9" x="665.57" y="518.53" width="35.06" height="10.27">
			</rect>
			<rect class="st9" x="722.94" y="518.53" width="35.06" height="10.27">
			</rect>
			<rect class="st9" x="780.57" y="518.53" width="35.06" height="10.27">
			</rect>
			<rect class="st9" x="492.47" y="518.53" width="35.06" height="10.27">
			</rect>
			<rect class="st9" x="838.48" y="518.53" width="35.06" height="10.27">
			</rect>
			<line class="st4" x1="518.16" y1="529.41" x2="524.92" y2="529.41">
			</line>
			<line class="st4" x1="553.39" y1="529.41" x2="560.15" y2="529.41">
			</line>
			<line class="st4" x1="576.16" y1="529.41" x2="582.92" y2="529.41">
			</line>
			<line class="st4" x1="611.39" y1="529.41" x2="618.15" y2="529.41">
			</line>
			<line class="st4" x1="632.91" y1="529.41" x2="639.67" y2="529.41">
			</line>
			<line class="st4" x1="668.14" y1="529.41" x2="674.9" y2="529.41">
			</line>
			<line class="st4" x1="690.91" y1="529.41" x2="697.67" y2="529.41">
			</line>
			<line class="st4" x1="726.14" y1="529.41" x2="732.9" y2="529.41">
			</line>
			<line class="st4" x1="748.05" y1="529.41" x2="754.81" y2="529.41">
			</line>
			<line class="st4" x1="783.27" y1="529.41" x2="790.03" y2="529.41">
			</line>
			<line class="st4" x1="806.04" y1="529.41" x2="812.81" y2="529.41">
			</line>
			<line class="st4" x1="841.27" y1="529.41" x2="848.03" y2="529.41">
			</line>
			<line class="st3" x1="518.16" y1="518.24" x2="524.92" y2="518.24">
			</line>
			<line class="st3" x1="553.39" y1="518.24" x2="560.15" y2="518.24">
			</line>
			<line class="st3" x1="576.16" y1="518.24" x2="582.92" y2="518.24">
			</line>
			<line class="st3" x1="611.39" y1="518.24" x2="618.15" y2="518.24">
			</line>
			<line class="st3" x1="632.91" y1="518.24" x2="639.67" y2="518.24">
			</line>
			<line class="st3" x1="668.14" y1="518.24" x2="674.9" y2="518.24">
			</line>
			<line class="st3" x1="690.91" y1="518.24" x2="697.67" y2="518.24">
			</line>
			<line class="st3" x1="726.14" y1="518.24" x2="732.9" y2="518.24">
			</line>
			<line class="st3" x1="748.05" y1="518.24" x2="754.81" y2="518.24">
			</line>
			<line class="st3" x1="783.27" y1="518.24" x2="790.03" y2="518.24">
			</line>
			<line class="st3" x1="806.04" y1="518.24" x2="812.81" y2="518.24">
			</line>
			<line class="st3" x1="841.27" y1="518.24" x2="848.03" y2="518.24">
			</line>
			<rect class="st11" x="518.16" y="503.89" width="12.46" height="2.91">
			</rect>
			<rect class="st11" x="632.91" y="503.89" width="12.46" height="2.91">
			</rect>
			<rect class="st11" x="748.05" y="503.89" width="12.46" height="2.91">
			</rect>
			<rect class="st11" x="509.99" y="522.1" width="16.41" height="2.91">
			</rect>
			<rect class="st11" x="625.53" y="522.21" width="16.41" height="2.91">
			</rect>
			<rect class="st11" x="739.84" y="522.21" width="16.41" height="2.91">
			</rect>
			<rect class="st11" x="856.01" y="522.21" width="16.41" height="2.91">
			</rect>
			<rect class="st11" x="499.83" y="522.1" width="4.21" height="2.91">
			</rect>
			<rect class="st11" x="616.04" y="522.21" width="4.21" height="2.91">
			</rect>
			<rect class="st11" x="730.79" y="522.37" width="4.21" height="2.91">
			</rect>
			<rect class="st11" x="845.93" y="522.21" width="4.21" height="2.91">
			</rect>
			<rect class="st11" x="534.67" y="542" width="16.09" height="2.66">
			</rect>
			<rect class="st11" x="582.92" y="542" width="16.09" height="2.66">
			</rect>
			<rect class="st11" x="649.48" y="542" width="16.09" height="2.66">
			</rect>
			<rect class="st11" x="697.67" y="542" width="16.09" height="2.66">
			</rect>
			<rect class="st11" x="764.48" y="542" width="16.09" height="2.66">
			</rect>
			<rect class="st11" x="812.81" y="542" width="16.09" height="2.66">
			</rect>
			<rect class="st11" x="553.43" y="526.16" width="19.61" height="1.6">
			</rect>
			<rect class="st11" x="668.14" y="526.4" width="19.61" height="1.6">
			</rect>
			<rect class="st11" x="783.27" y="526.45" width="19.61" height="1.6">
			</rect>
			<rect class="st11" x="614.77" y="502.67" width="3.38" height="3.38">
			</rect>
			<rect class="st11" x="729.52" y="502.67" width="3.38" height="3.38">
			</rect>
			<rect class="st11" x="844.65" y="502.67" width="3.38" height="3.38">
			</rect>
			<line class="st3" x1="518.16" y1="544.66" x2="560.15" y2="544.66">
			</line>
			<line class="st3" x1="576.16" y1="544.66" x2="618.15" y2="544.66">
			</line>
			<line class="st3" x1="632.91" y1="544.66" x2="674.9" y2="544.66">
			</line>
			<line class="st3" x1="690.91" y1="544.66" x2="732.9" y2="544.66">
			</line>
			<line class="st3" x1="748.05" y1="544.66" x2="790.03" y2="544.66">
			</line>
			<line class="st3" x1="806.04" y1="544.66" x2="848.03" y2="544.66">
			</line>
			<line class="st3" x1="524.92" y1="537.9" x2="553.39" y2="537.9">
			</line>
			<line class="st3" x1="582.92" y1="537.9" x2="611.39" y2="537.9">
			</line>
			<line class="st3" x1="639.67" y1="537.9" x2="668.14" y2="537.9">
			</line>
			<line class="st3" x1="697.67" y1="537.9" x2="726.14" y2="537.9">
			</line>
			<line class="st3" x1="754.81" y1="537.9" x2="783.27" y2="537.9">
			</line>
			<line class="st3" x1="812.81" y1="537.9" x2="841.27" y2="537.9">
			</line>
		</g>
		<g>
			<rect class="st5" x="508.8" y="223.34" width="348.39" height="248.49">
			</rect>
			<path class="st6" d="M508.8,223.34v248.49h348.39v-248.49h-348.39ZM524.68,238.01h9.9v9.99h-9.9v-9.99ZM534.58,454.25h-9.9v-9.99h9.9v9.99ZM841.33,454.24h-9.9v-9.99h9.9v9.99ZM841.33,432.91h-21.16v21.34h-274.35v-21.34h-21.16v-173.57h21.16v-21.34h274.35v21.34h21.16v173.57ZM841.33,247.98h-9.9v-9.99h9.9v9.99Z">
			</path>
			<rect class="st7" x="581.85" y="275.44" width="10.85" height="148.36">
			</rect>
			<rect class="st10" x="625.53" y="275.44" width="10.76" height="148.36">
			</rect>
			<path class="st10" d="M831.44,432.91v-162.46h-11.26v-11.13h-.03v-11.34h-266.18v19.52h-2.18s-.03,0-.03,0c0,0,0,0,0,0s0,0,0,0h-.02s-18.99,0-18.99,0v165.42h13.07v11.34h274.39s0,0,0,0h-.1v-11.34h11.33ZM592.7,423.8h-21.69v-156.3h21.69v156.3ZM636.29,423.8h-21.53v-156.3h21.53v156.3ZM750.69,423.8h-21.69v-156.3h21.69v156.3ZM797.5,423.8h-21.69v-156.3h21.69v156.3Z">
			</path>
			<rect class="st7" x="739.84" y="275.44" width="10.85" height="148.36">
			</rect>
			<rect class="st7" x="786.59" y="275.44" width="10.85" height="148.36">
			</rect>
		</g>
		<polygon class="st2" points="694.98 308.55 720.7 308.55 720.7 276.7 643.48 276.7 643.48 349.49 669.88 349.49 669.88 390.44 643.48 390.44 643.48 414.6 720.7 414.6 720.7 349.49 694.98 349.49 694.98 308.55">
		</polygon>
		<rect class="st11" x="509.03" y="223.34" width="9.18" height="23.68">
		</rect>
		<rect class="st11" x="513.61" y="261.5" width="4.59" height="84.15">
		</rect>
		<rect class="st11" x="524.39" y="223.34" width="18.33" height="11.84">
		</rect>
		<line class="st1" x1="508.8" y1="471.83" x2="857.2" y2="471.83">
		</line>
		<rect class="st11" x="550.76" y="223.34" width="132.33" height="5.92">
		</rect>
		<rect class="st11" x="623.68" y="229.26" width="92.58" height="5.92">
		</rect>
		<rect class="st5" x="754.19" y="461.62" width="92.15" height="4.32">
		</rect>
		<rect class="st5" x="548.53" y="461.62" width="82.38" height="10.21">
		</rect>
	</g>
	<path class="st0" d="M524.68,247.99">
	</path>
	<rect class="st11" x="837.62" y="239.55" width="2.38" height="2.38">
	</rect>
	<rect class="st11" x="526.64" y="241.33" width="2.99" height="2.99">
	</rect>
	<rect class="st11" x="526.72" y="447.13" width="3.06" height="3.06">
	</rect>
	<rect class="st11" x="834.27" y="449.25" width="3.6" height="3.6">
	</rect>
	<rect class="st11" x="837.87" y="446.53" width="1.53" height="1.53">
	</rect>
	<rect class="st11" x="837.19" y="243.3" width=".94" height=".94">
	</rect>
</svg>
